<?xml version="1.0" encoding="UTF-8"?><svg xmlns="http://www.w3.org/2000/svg" xmlns:xlink="http://www.w3.org/1999/xlink" contentScriptType="text/ecmascript" width="37.5" zoomAndPan="magnify" contentStyleType="text/css" viewBox="0 0 37.5 37.499999" height="37.499999" preserveAspectRatio="xMidYMid meet" version="1.0"><defs><clipPath id="clip-0"><path d="M 0 0 L 37.007812 0 L 37.007812 37.007812 L 0 37.007812 Z M 0 0 " clip-rule="nonzero"/></clipPath><clipPath id="clip-1"><path d="M 0 29 L 9 29 L 9 37.007812 L 0 37.007812 Z M 0 29 " clip-rule="nonzero"/></clipPath><clipPath id="clip-2"><path d="M 9 29 L 19 29 L 19 37.007812 L 9 37.007812 Z M 9 29 " clip-rule="nonzero"/></clipPath><clipPath id="clip-3"><path d="M 19 29 L 28 29 L 28 37.007812 L 19 37.007812 Z M 19 29 " clip-rule="nonzero"/></clipPath><clipPath id="clip-4"><path d="M 29 29 L 37.007812 29 L 37.007812 37.007812 L 29 37.007812 Z M 29 29 " clip-rule="nonzero"/></clipPath></defs><g clip-path="url(#clip-0)"><path fill="rgb(100%, 100%, 100%)" d="M 0 0 L 37.5 0 L 37.5 45 L 0 45 Z M 0 0 " fill-opacity="1" fill-rule="nonzero"/><path fill="rgb(100%, 100%, 100%)" d="M 0 0 L 37.5 0 L 37.5 37.5 L 0 37.5 Z M 0 0 " fill-opacity="1" fill-rule="nonzero"/><path fill="rgb(0.779724%, 0%, 9.408569%)" d="M 0 0 L 37.5 0 L 37.5 37.5 L 0 37.5 Z M 0 0 " fill-opacity="1" fill-rule="nonzero"/></g><path fill="rgb(90.979004%, 65.098572%, 10.198975%)" d="M 0 0 L 8.449219 0 L 8.449219 8.449219 L 0 8.449219 Z M 0 0 " fill-opacity="1" fill-rule="nonzero"/><path fill="rgb(90.979004%, 65.098572%, 10.198975%)" d="M 0 9.683594 L 8.449219 9.683594 L 8.449219 18.132812 L 0 18.132812 Z M 0 9.683594 " fill-opacity="1" fill-rule="nonzero"/><path fill="rgb(90.979004%, 65.098572%, 10.198975%)" d="M 0 19.367188 L 8.449219 19.367188 L 8.449219 27.816406 L 0 27.816406 Z M 0 19.367188 " fill-opacity="1" fill-rule="nonzero"/><g clip-path="url(#clip-1)"><path fill="rgb(90.979004%, 65.098572%, 10.198975%)" d="M 0 29.050781 L 8.449219 29.050781 L 8.449219 37.5 L 0 37.5 Z M 0 29.050781 " fill-opacity="1" fill-rule="nonzero"/></g><path fill="rgb(94.898987%, 76.469421%, 10.5896%)" d="M 9.683594 9.683594 L 18.132812 9.683594 L 18.132812 18.132812 L 9.683594 18.132812 Z M 9.683594 9.683594 " fill-opacity="1" fill-rule="nonzero"/><path fill="rgb(94.898987%, 76.469421%, 10.5896%)" d="M 9.683594 19.367188 L 18.132812 19.367188 L 18.132812 27.816406 L 9.683594 27.816406 Z M 9.683594 19.367188 " fill-opacity="1" fill-rule="nonzero"/><g clip-path="url(#clip-2)"><path fill="rgb(94.898987%, 76.469421%, 10.5896%)" d="M 9.683594 29.050781 L 18.132812 29.050781 L 18.132812 37.5 L 9.683594 37.5 Z M 9.683594 29.050781 " fill-opacity="1" fill-rule="nonzero"/></g><path fill="rgb(85.879517%, 77.249146%, 14.118958%)" d="M 19.367188 19.367188 L 27.816406 19.367188 L 27.816406 27.816406 L 19.367188 27.816406 Z M 19.367188 19.367188 " fill-opacity="1" fill-rule="nonzero"/><g clip-path="url(#clip-3)"><path fill="rgb(85.879517%, 77.249146%, 14.118958%)" d="M 19.367188 29.050781 L 27.816406 29.050781 L 27.816406 37.5 L 19.367188 37.5 Z M 19.367188 29.050781 " fill-opacity="1" fill-rule="nonzero"/></g><g clip-path="url(#clip-4)"><path fill="rgb(94.898987%, 93.728638%, 10.5896%)" d="M 29.050781 29.050781 L 37.5 29.050781 L 37.5 37.5 L 29.050781 37.5 Z M 29.050781 29.050781 " fill-opacity="1" fill-rule="nonzero"/></g></svg>